<svg id="visual" viewBox="0 0 960 540" width="960" height="540" xmlns="http://www.w3.org/2000/svg" xmlns:xlink="http://www.w3.org/1999/xlink" version="1.1"><path d="M0 189L22.8 196.8C45.7 204.7 91.3 220.3 137 208.2C182.7 196 228.3 156 274 138.7C319.7 121.3 365.3 126.7 411.2 141C457 155.3 503 178.7 548.8 178.3C594.7 178 640.3 154 686 154C731.7 154 777.3 178 823 195.8C868.7 213.7 914.3 225.3 937.2 231.2L960 237L960 0L937.2 0C914.3 0 868.7 0 823 0C777.3 0 731.7 0 686 0C640.3 0 594.7 0 548.8 0C503 0 457 0 411.2 0C365.3 0 319.7 0 274 0C228.3 0 182.7 0 137 0C91.3 0 45.7 0 22.8 0L0 0Z" fill="#fe6b6b" stroke-linecap="round" stroke-linejoin="miter"></path></svg>